PathFileType	4	(X/Y/Z)	c:\Git\powerlifing_model_clean\simulations\HC835B\Session1\HC835B_OGW_0003\marker_experimental.trc
DataRate	CameraRate	NumFrames	NumMarkers	Units	OrigDataRate	OrigDataStartFrame	OrigNumFrames
240.000000	240.000000	4	38	mm	240.000000	214	428
Frame#	Time	RPSI			LPSI			RASI			LASI			RTH1			RTH2			RTH3			RTH4			RSK1			RSK2			RSK3			RSK4			RCAL1			RCAL2			RCAL3			RST			RPT			RTN			RFMB			RSMB			RVMB			RFMH			RSMH			RVMH			RPM			LTH1			LTH2			LTH3			LTH4			LSK1			LSK2			LSK3			LSK4			LCAL1			LCAL2			LCAL3			LFMH			LVMH			
		X1	Y1	Z1	X2	Y2	Z2	X3	Y3	Z3	X4	Y4	Z4	X5	Y5	Z5	X6	Y6	Z6	X7	Y7	Z7	X8	Y8	Z8	X9	Y9	Z9	X10	Y10	Z10	X11	Y11	Z11	X12	Y12	Z12	X13	Y13	Z13	X14	Y14	Z14	X15	Y15	Z15	X16	Y16	Z16	X17	Y17	Z17	X18	Y18	Z18	X19	Y19	Z19	X20	Y20	Z20	X21	Y21	Z21	X22	Y22	Z22	X23	Y23	Z23	X24	Y24	Z24	X25	Y25	Z25	X26	Y26	Z26	X27	Y27	Z27	X28	Y28	Z28	X29	Y29	Z29	X30	Y30	Z30	X31	Y31	Z31	X32	Y32	Z32	X33	Y33	Z33	X34	Y34	Z34	X35	Y35	Z35	X36	Y36	Z36	X37	Y37	Z37	X38	Y38	Z38	

215	0.8916666666666666	474.0327148437501	1146.621215820313	-1081.215698242188	585.0527343750001	1146.286499023438	-1078.542114257813	411.5365600585939	1113.10888671875	-874.6623535156252	649.7376098632814	1105.40625	-868.9006958007815	311.1174011230469	850.2605590820315	-853.170349121094	319.3201599121094	864.9675903320315	-794.7316894531252	313.3562316894532	786.6640625000002	-797.4087524414065	332.4495544433594	797.968933105469	-743.2167358398439	365.5399780273438	400.4434814453126	-916.7268066406252	357.3474426269532	362.2330932617188	-868.690124511719	370.7876892089844	342.2636718750001	-925.0216064453127	375.2059020996094	306.5207519531251	-876.9548339843752	443.6940002441407	240.2329406738282	-1028.65673828125	481.2866821289064	208.9593353271485	-1032.286376953125	419.5046386718751	202.7268371582032	-1048.466918945313	482.528533935547	189.0544891357422	-963.8799438476565	385.3761596679689	179.8798522949219	-997.8531494140627	457.739959716797	175.6666870117188	-911.4947509765627	454.3597412109376	144.317611694336	-892.8743896484377	401.8894958496095	154.055419921875	-883.1685791015627	376.9235534667969	133.33251953125	-974.577331542969	458.6564025878907	91.28103637695314	-862.180114746094	401.7642211914064	92.95726776123048	-852.470642089844	353.7076416015626	83.63197326660158	-916.9079589843752	406.3070068359376	59.10842895507814	-806.9436035156252	703.0662231445314	817.3691406250002	-963.0623168945315	696.7126464843751	803.3032836914065	-903.8422851562502	691.0916137695314	734.3112182617189	-945.6347656250002	668.2390747070314	723.3259277343751	-890.0861816406252	629.2203369140626	289.1654663085938	-1058.054809570313	633.9410400390626	266.4955139160157	-1009.743225097656	624.2110595703126	233.9756011962891	-1046.1162109375	613.2143554687501	214.9978790283204	-993.644958496094	557.2106933593751	89.9422073364258	-1111.786987304688	587.8539428710939	53.01233673095705	-1111.878540039063	529.1191406250001	51.04880905151369	-1107.313110351563	532.3225708007814	61.96236038208009	-883.0834960937502	636.3002929687501	36.85324096679688	-923.6594848632815	
216	0.8958333333333334	473.6328430175782	1146.674438476563	-1074.568725585938	584.7575683593751	1146.281494140625	-1072.167602539063	412.0648803710939	1113.233642578125	-867.7032470703127	649.8845825195314	1105.064208984375	-862.7529907226565	310.6661071777344	851.2922363281252	-844.2341918945315	319.9784851074219	865.6215820312502	-786.401794433594	313.9450683593751	787.2497558593752	-788.796569824219	333.5426635742188	798.937438964844	-734.7122192382814	365.7167358398438	397.493133544922	-902.7695312500002	357.6952209472657	360.3193969726563	-854.2976074218752	371.0034179687501	339.2977600097657	-909.9937133789065	375.4892883300782	304.5614624023438	-861.0449829101565	442.9053955078126	234.1414947509766	-1010.815673828125	481.0582275390626	202.8957824707032	-1014.554016113281	419.2207031250001	196.3497772216797	-1030.27490234375	482.0134277343751	184.3789978027344	-946.0747680664065	385.0095520019532	175.0384063720703	-978.6619262695315	458.0035095214845	173.1070861816407	-892.4957275390627	454.2967834472657	141.7201080322266	-873.446716308594	401.9722595214845	152.0255889892578	-863.6106567382815	376.7343444824219	129.0246887207032	-954.386413574219	458.7182006835939	89.80269622802736	-841.090270996094	401.8716735839845	91.96514892578126	-831.5093994140627	353.8772277832032	80.3516082763672	-895.2174072265627	406.4420166015626	59.183650970459	-784.9327392578127	702.9444580078126	817.5793457031252	-959.075622558594	696.4224243164064	802.9761962890627	-899.9810180664065	690.8233032226564	734.3588256835939	-942.381042480469	667.8737792968751	722.9046630859376	-886.9779052734377	629.2138671875001	289.4489135742188	-1057.328735351563	633.9727172851564	266.7936706542969	-1008.952087402344	624.1386108398439	234.2696228027344	-1045.605102539063	613.1437988281251	215.0641784667969	-993.1419067382815	556.8845825195314	90.02577972412111	-1111.716064453125	587.7379760742189	53.21697998046876	-1111.783081054688	529.3854980468751	51.36813354492189	-1106.797241210938	532.3635253906251	61.91151809692384	-882.968200683594	636.3203125000001	36.84221649169923	-923.640075683594	
217	0.9	473.2456359863282	1146.581176757813	-1067.930297851563	584.4310913085939	1146.198120117188	-1065.79296875	412.5892028808595	1113.231079101563	-860.8142700195315	650.0306396484376	1104.58447265625	-856.613952636719	310.9284057617188	851.622253417969	-835.8668212890627	320.6026611328126	866.4727783203127	-777.982116699219	314.5901794433594	787.9631347656252	-780.1820068359377	334.2213745117188	799.8242187500002	-726.0863037109376	365.8511352539063	394.1355285644532	-889.1670532226565	358.1265563964844	358.0553894042969	-839.2443847656252	371.1094665527344	335.8428955078126	-894.7662353515627	375.7856140136719	302.4952087402344	-845.1980590820315	442.7766113281251	228.3149108886719	-993.3300781250002	480.6917724609376	196.6489562988282	-996.4271240234377	418.8715820312501	189.8268127441407	-1011.624694824219	481.9133911132814	180.0926666259766	-927.3901367187502	384.7467651367189	170.1423797607422	-959.4317626953127	458.0496215820314	170.2769775390625	-873.4764404296877	454.4256591796876	139.5886383056641	-853.4506835937502	402.2625122070314	150.3506011962891	-843.5977172851565	376.5931091308594	124.7660064697266	-934.1091308593752	458.7361755371095	88.29914855957033	-819.9836425781252	401.7313842773439	90.78006744384767	-810.090759277344	353.6922302246094	77.58441162109376	-873.6353759765627	406.5604248046876	59.34521484375001	-762.7705078125001	703.0756835937501	817.6382446289065	-955.090759277344	696.0021972656251	802.6402587890627	-896.1127929687502	690.5748901367189	734.3223876953126	-939.0278930664065	667.4869995117189	722.5349731445314	-883.8230590820315	629.1326293945314	289.7667236328126	-1056.600219726563	633.8808593750001	266.8768310546876	-1008.41357421875	624.2586059570314	234.5490722656251	-1044.9453125	613.0881347656251	215.1518249511719	-992.618347167969	556.9406127929689	90.38710021972658	-1111.439819335938	587.6032104492189	53.46507263183595	-1111.681640625	529.3050537109376	51.57172775268556	-1106.63037109375	532.5169677734376	61.99221801757814	-882.6216430664065	636.3360595703126	36.78973770141602	-923.6304321289065	
218	0.9041666666666667	472.7768859863282	1146.280639648438	-1061.488525390625	584.0936889648439	1146.082153320313	-1059.372436523438	413.084686279297	1113.130737304688	-853.8504638671877	650.1708374023439	1104.036010742188	-850.4501953125002	311.1515197753907	852.134460449219	-827.4231567382815	321.3852233886719	866.8120727539065	-769.817565917969	315.1980895996094	788.4996337890627	-771.686218261719	335.2156982421876	800.6594238281252	-717.5560913085939	366.1178588867188	391.2560119628907	-875.2769165039065	358.5113220214844	356.0416259765626	-824.6306762695315	371.2356872558594	332.3852233886719	-879.3800048828127	376.0120544433594	300.0567626953126	-829.2211914062502	442.628143310547	222.2915344238282	-975.7238769531252	480.4820251464845	190.4610290527344	-978.0992431640627	418.6219177246095	183.4229125976563	-993.021423339844	481.837371826172	175.8554840087891	-908.638854980469	384.4404602050782	165.0917205810547	-940.145446777344	458.0245361328126	167.5070343017578	-854.2144165039065	454.4004211425782	137.3151092529297	-833.5390625000002	402.2742004394532	148.3539428710938	-823.9216918945315	376.3863220214844	120.4980926513672	-913.6834716796877	458.2548828125001	86.30712127685548	-799.354919433594	401.7217102050782	89.73226165771486	-788.8256835937502	353.5437622070313	75.08557128906251	-851.9175415039065	406.5871582031251	59.53767395019533	-740.8342895507814	702.5863037109376	817.6934814453127	-950.9832763671877	695.8833007812501	802.0925292968752	-892.360778808594	690.4702148437501	734.3687744140626	-935.656677246094	667.1013183593751	722.0850830078126	-880.583923339844	629.6136474609376	290.4277038574219	-1055.263916015625	633.8379516601564	267.0700683593751	-1007.753967285156	624.1929321289064	234.8358764648438	-1044.344116210938	613.0367431640626	215.267318725586	-992.1185302734377	556.8025512695314	90.59270477294923	-1111.260864257813	587.4956054687501	53.71337127685548	-1111.584228515625	529.1819458007814	51.77216720581056	-1106.48193359375	532.5889892578126	61.96347808837892	-882.4509887695315	636.3785400390626	36.75934982299805	-923.6018676757815	
